<svg width="130" height="34" viewBox="0 0 130 34" fill="none" xmlns="http://www.w3.org/2000/svg">
<path fill-rule="evenodd" clip-rule="evenodd" d="M6.89003 26.4261C6.89003 24.5017 5.37801 23.5566 3.60825 23.5566C2.68041 23.5566 1.70103 23.7628 0.816151 24.3127C0.609966 24.4415 0.498282 24.6477 0.498282 24.8797C0.498282 25.2577 0.798969 25.481 1.14261 25.481C1.2543 25.481 1.3488 25.4467 1.4433 25.3865C2.16495 24.9742 2.86082 24.7422 3.61684 24.7422C4.80241 24.7422 5.61856 25.3264 5.61856 26.4432V27.6288H3.47079C2.31959 27.6288 1.43471 27.8522 0.850515 28.3848C0.283505 28.9003 0 29.5962 0 30.481C0 31.3659 0.283505 32.0876 0.833333 32.5773C1.41753 33.1099 2.30241 33.3934 3.45361 33.3934C4.43299 33.3934 5.37801 33.2216 6.28007 32.9209C6.64089 32.8092 6.88144 32.4656 6.88144 32.0962V26.4261H6.89003ZM5.60137 31.8814C4.92268 32.0876 4.18385 32.1993 3.45361 32.1993C1.52921 32.1993 1.28007 31.2371 1.28007 30.481C1.28007 29.725 1.52921 28.823 3.45361 28.823H5.60137V31.8814Z" fill="white"/>
<path d="M11.2973 32.8608C11.3918 33.1615 11.6753 33.3934 12.0189 33.3934C12.3626 33.3934 12.6633 33.17 12.7578 32.8436L15.4382 24.4072C15.4553 24.3298 15.4725 24.2783 15.4725 24.201C15.4725 23.8058 15.1718 23.5566 14.811 23.5566C14.5447 23.5566 14.3041 23.7456 14.2268 24.012L12.0189 31.1769L9.6392 23.9862C9.5447 23.7199 9.30415 23.5566 9.03782 23.5566C8.65982 23.5566 8.39349 23.8573 8.39349 24.201C8.39349 24.2783 8.41068 24.3298 8.42786 24.4072L11.2973 32.8608Z" fill="white"/>
<path fill-rule="evenodd" clip-rule="evenodd" d="M23.3935 26.4261C23.3935 24.5017 21.8815 23.5566 20.1117 23.5566C19.1839 23.5566 18.2045 23.7628 17.3196 24.3127C17.1134 24.4415 17.0017 24.6477 17.0017 24.8797C17.0017 25.2577 17.3024 25.481 17.6461 25.481C17.7577 25.481 17.8522 25.4467 17.9467 25.3865C18.6598 24.9742 19.3643 24.7422 20.1203 24.7422C21.3059 24.7422 22.122 25.3264 22.122 26.4432V27.6288H19.9742C18.823 27.6288 17.9382 27.8522 17.354 28.3848C16.8041 28.8917 16.5206 29.5962 16.5206 30.481C16.5206 31.3659 16.8041 32.0876 17.354 32.5773C17.9382 33.1099 18.823 33.3934 19.9742 33.3934C20.9536 33.3934 21.8986 33.2216 22.8007 32.9209C23.1615 32.8092 23.4021 32.4656 23.4021 32.0962V26.4261H23.3935ZM22.1134 31.8814C21.4347 32.0876 20.6959 32.1993 19.9656 32.1993C18.0412 32.1993 17.7921 31.2371 17.7921 30.481C17.7921 29.725 18.0327 28.823 19.9656 28.823H22.1134V31.8814Z" fill="white"/>
<path d="M26.0309 32.7491C26.0309 33.1099 26.3144 33.3934 26.6753 33.3934C27.0361 33.3934 27.3196 33.1099 27.3196 32.7491V20.4295C27.3196 20.0687 27.0361 19.7852 26.6753 19.7852C26.3144 19.7852 26.0309 20.0687 26.0309 20.4295V32.7491Z" fill="white"/>
<path fill-rule="evenodd" clip-rule="evenodd" d="M36.9244 27.1993C36.9244 25.0257 35.4726 23.5566 33.299 23.5566C31.1255 23.5566 29.6736 25.0257 29.6736 27.1993V29.7422C29.6736 31.9157 31.1255 33.3848 33.299 33.3848C35.4726 33.3848 36.9244 31.9157 36.9244 29.7422V27.1993ZM35.6358 29.8453C35.6358 31.3144 34.7681 32.1993 33.299 32.1993C31.8299 32.1993 30.9622 31.3144 30.9622 29.8453V27.1133C30.9622 25.6443 31.8299 24.7508 33.299 24.7508C34.7681 24.7508 35.6358 25.6357 35.6358 27.1133V29.8453Z" fill="white"/>
<path d="M44.7853 32.7491C44.7853 33.1099 45.0688 33.3934 45.4297 33.3934C45.7905 33.3934 46.074 33.1099 46.074 32.7491V27.0102C46.074 24.957 44.6994 23.5566 42.6376 23.5566C41.641 23.5566 40.6788 23.7113 39.7853 24.0291C39.4245 24.158 39.184 24.4845 39.184 24.8539V32.7405C39.184 33.1013 39.4675 33.3848 39.8283 33.3848C40.1891 33.3848 40.4726 33.1013 40.4726 32.7405V25.0601C41.1513 24.8539 41.8901 24.7422 42.6462 24.7422C43.9864 24.7422 44.7939 25.5584 44.7939 26.9157V32.7491H44.7853Z" fill="white"/>
<path d="M48.7543 30.2233C48.7543 31.1512 49.055 31.9587 49.622 32.5258C50.189 33.0928 50.9794 33.3934 51.9244 33.3934C52.7577 33.3934 53.5653 33.2216 54.2783 32.8436C54.4072 32.7663 54.4845 32.6546 54.4845 32.5258C54.4845 32.3196 54.2955 32.1649 54.1237 32.1649C54.0721 32.1649 54.012 32.1821 53.9776 32.1993C53.3333 32.5258 52.6374 32.7062 51.9244 32.7062C50.4123 32.7062 49.4931 31.7096 49.4931 30.2148V26.8557C49.4931 25.3436 50.4209 24.3642 51.9244 24.3642C52.6374 24.3642 53.3161 24.5876 53.9776 24.8539C54.0378 24.8711 54.0721 24.8883 54.1237 24.8883C54.3299 24.8883 54.4845 24.7337 54.4845 24.5532C54.4845 24.4244 54.4072 24.2869 54.2783 24.2268C53.5481 23.8917 52.7491 23.6855 51.9244 23.6855C50.9794 23.6855 50.189 23.9862 49.622 24.5532C49.055 25.1203 48.7543 25.9106 48.7543 26.8557V30.2233Z" fill="white"/>
<path fill-rule="evenodd" clip-rule="evenodd" d="M62.8437 27.0534C62.8437 26.0569 62.5431 25.2235 61.9417 24.6222C61.3403 24.0208 60.4898 23.6943 59.5104 23.6943C58.5138 23.6943 57.6805 24.0122 57.0791 24.6222C56.4778 25.2235 56.1513 26.0569 56.1513 27.0534V30.0345C56.1513 31.0311 56.4692 31.8644 57.0791 32.4658C57.6805 33.0672 58.5138 33.3936 59.5104 33.3936C60.4898 33.3936 61.3403 33.0672 61.9417 32.4658C62.5431 31.8644 62.8437 31.0311 62.8437 30.0345V27.0534ZM62.1049 30.0861C62.1049 31.7098 61.1084 32.7064 59.5018 32.7064C57.8781 32.7064 56.8815 31.7098 56.8815 30.0861V26.9933C56.8815 25.3696 57.8781 24.373 59.5018 24.373C61.1427 24.373 62.1049 25.4125 62.1049 26.9933V30.0861Z" fill="white"/>
<path d="M65.4297 33.0154C65.4297 33.2216 65.6015 33.3934 65.7905 33.3934C65.9967 33.3934 66.1685 33.2216 66.1685 33.0154V20.1632C66.1685 19.957 65.9967 19.7852 65.7905 19.7852C65.6015 19.7852 65.4297 19.957 65.4297 20.1632V33.0154Z" fill="white"/>
<path d="M69.2613 33.0154C69.2613 33.2216 69.4331 33.3934 69.6221 33.3934C69.8283 33.3934 70.0001 33.2216 70.0001 33.0154V20.1632C70.0001 19.957 69.8283 19.7852 69.6221 19.7852C69.4331 19.7852 69.2613 19.957 69.2613 20.1632V33.0154Z" fill="white"/>
<path fill-rule="evenodd" clip-rule="evenodd" d="M78.3161 28.5998C78.6597 28.5998 78.9175 28.3335 78.9175 27.9985V26.8644C78.9175 25.9194 78.6168 25.129 78.0498 24.562C77.4828 23.995 76.6924 23.6943 75.7474 23.6943C74.8024 23.6943 74.012 23.995 73.445 24.562C72.878 25.129 72.5773 25.9194 72.5773 26.8644V30.2235C72.5773 31.1514 72.878 31.9589 73.445 32.526C74.012 33.093 74.8024 33.3936 75.7474 33.3936C76.6494 33.3936 77.5171 33.1703 78.3333 32.8095C78.4621 32.7579 78.5567 32.6205 78.5567 32.4744C78.5567 32.2854 78.3676 32.1308 78.1958 32.1308C78.1357 32.1308 78.0841 32.1479 78.024 32.1651C77.2852 32.4658 76.5378 32.715 75.7388 32.715C74.2268 32.715 73.3075 31.7184 73.3075 30.2235V28.5998H78.3161ZM78.1786 27.9211H73.3075V26.8043C73.3075 25.2923 74.2353 24.373 75.7388 24.373C77.2508 24.373 78.17 25.3009 78.17 26.8043V27.9211H78.1786Z" fill="white"/>
<path d="M80.9966 30.2233C80.9966 31.1512 81.2973 31.9587 81.8643 32.5258C82.4313 33.0928 83.2217 33.3934 84.1667 33.3934C85 33.3934 85.8076 33.2216 86.5206 32.8436C86.6495 32.7663 86.7268 32.6546 86.7268 32.5258C86.7268 32.3196 86.5378 32.1649 86.366 32.1649C86.3059 32.1649 86.2543 32.1821 86.22 32.1993C85.5756 32.5258 84.8797 32.7062 84.1667 32.7062C82.6547 32.7062 81.7354 31.7096 81.7354 30.2148V26.8557C81.7354 25.3436 82.6633 24.3642 84.1667 24.3642C84.8797 24.3642 85.5584 24.5876 86.22 24.8539C86.2801 24.8711 86.3145 24.8883 86.366 24.8883C86.5722 24.8883 86.7268 24.7337 86.7268 24.5532C86.7268 24.4244 86.6495 24.2869 86.5206 24.2268C85.7818 23.8917 84.9914 23.6855 84.1667 23.6855C83.2217 23.6855 82.4313 23.9862 81.8643 24.5532C81.2973 25.1203 80.9966 25.9106 80.9966 26.8557V30.2233Z" fill="white"/>
<path d="M88.8059 30.9965C88.8059 32.4828 89.708 33.3934 90.9966 33.3934C91.3575 33.3934 91.6925 33.359 92.0361 33.2989C92.2251 33.2645 92.3368 33.1271 92.3368 32.9553C92.3368 32.7491 92.165 32.6202 92.0018 32.6202C91.8128 32.6202 91.3231 32.7147 90.9966 32.7147C90.1633 32.7147 89.5447 32.0532 89.5447 30.9965V24.5618H91.976C92.1822 24.5618 92.3368 24.4329 92.3368 24.2181C92.3368 24.012 92.1822 23.8831 91.976 23.8831H89.5447V20.1632C89.5447 19.957 89.3729 19.7852 89.1667 19.7852C88.9777 19.7852 88.8059 19.957 88.8059 20.1632V30.9965Z" fill="white"/>
<path d="M94.6133 33.0156C94.6133 33.2218 94.7851 33.3936 94.9913 33.3936C95.1803 33.3936 95.3521 33.2218 95.3521 33.0156V24.0552C95.3521 23.8662 95.1803 23.6943 94.9913 23.6943C94.7851 23.6943 94.6133 23.8662 94.6133 24.0552V33.0156Z" fill="white"/>
<path d="M100.198 33.05C100.258 33.239 100.447 33.3936 100.67 33.3936C100.876 33.3936 101.065 33.239 101.125 33.05L103.823 24.1668C103.84 24.1153 103.84 24.0895 103.84 24.0552C103.84 23.849 103.651 23.6943 103.462 23.6943C103.308 23.6943 103.179 23.7888 103.119 23.9607L100.644 32.2768L98.0241 23.9435C97.9639 23.7888 97.8179 23.6943 97.6633 23.6943C97.4399 23.6943 97.3024 23.8833 97.3024 24.0552C97.3024 24.0895 97.3024 24.1153 97.3196 24.1668L100.198 33.05Z" fill="white"/>
<path fill-rule="evenodd" clip-rule="evenodd" d="M110.911 28.5998C111.246 28.5998 111.512 28.3335 111.512 27.9985V26.8644C111.512 25.9194 111.211 25.129 110.644 24.562C110.077 23.995 109.287 23.6943 108.342 23.6943C107.397 23.6943 106.606 23.995 106.039 24.562C105.472 25.129 105.172 25.9194 105.172 26.8644V30.2235C105.172 31.1514 105.472 31.9589 106.039 32.526C106.606 33.093 107.397 33.3936 108.342 33.3936C109.244 33.3936 110.112 33.1703 110.928 32.8095C111.057 32.7579 111.151 32.6205 111.151 32.4744C111.151 32.2854 110.962 32.1308 110.79 32.1308C110.73 32.1308 110.679 32.1479 110.618 32.1651C109.88 32.4658 109.132 32.715 108.333 32.715C106.821 32.715 105.902 31.7184 105.902 30.2235V28.5998H110.911ZM110.782 27.9211H105.911V26.8043C105.911 25.2923 106.838 24.373 108.342 24.373C109.854 24.373 110.773 25.3009 110.773 26.8043V27.9211H110.782Z" fill="white"/>
<path d="M124.991 14.3471V11.7612V11.1512L123.411 12.0704C123.076 12.2509 122.852 12.6031 122.852 13.0069V18.1959C122.852 18.7887 123.333 19.2612 123.918 19.2612C124.51 19.2612 124.991 18.7801 124.991 18.1959V14.3471ZM128.557 11.4175C128.557 11.0223 128.875 10.7045 129.27 10.7045C129.665 10.7045 129.983 11.0223 129.983 11.4175V18.9433C129.983 20.6615 129.046 22.1649 127.663 22.9639L126.271 23.7715C125.584 24.1753 124.777 24.4072 123.926 24.4072C123.076 24.4072 122.259 24.1753 121.581 23.7715L120.189 22.9639C118.806 22.1649 117.869 20.6615 117.869 18.9433V4.63917C117.869 2.07904 119.948 0 122.509 0H125.361C127.921 0 130 2.07045 130 4.63917V5.59278C129.991 7.27663 129.089 8.7543 127.741 9.56186L126.435 10.3179V10.9192V14.3471V18.1873C126.435 19.5704 125.318 20.6787 123.935 20.6787C122.552 20.6787 121.443 19.5619 121.443 18.1873V12.9983C121.443 12.0704 121.95 11.2457 122.723 10.8162L125.009 9.49313V8.89175V7.02749V5.90206C125.009 5.30928 124.527 4.82818 123.935 4.82818C123.342 4.82818 122.869 5.30928 122.869 5.90206V7.82646C122.869 8.22165 122.552 8.53952 122.156 8.53952C121.761 8.53952 121.443 8.22165 121.443 7.82646V5.90206C121.443 4.52749 122.56 3.40206 123.935 3.40206C125.309 3.40206 126.435 4.5189 126.435 5.90206V7.37113V8.16151V8.66838L127.019 8.33333C127.955 7.77491 128.574 6.75258 128.582 5.58419V4.63917C128.582 2.86942 127.148 1.43471 125.369 1.43471H122.517C120.747 1.43471 119.304 2.86942 119.304 4.64777V18.9519C119.304 20.1375 119.948 21.177 120.911 21.7354L122.311 22.5515C122.775 22.8265 123.342 22.9897 123.935 22.9897C124.527 22.9897 125.094 22.8265 125.558 22.5515L126.959 21.7354C127.921 21.177 128.565 20.1375 128.565 18.9519L128.557 11.4175Z" fill="white"/>
</svg>
