<svg width="177" height="50" viewBox="0 0 177 50" fill="none" xmlns="http://www.w3.org/2000/svg">
<path d="M0 24.9902L10.5232 14.436L21.0478 24.9937L10.5232 35.5479L0 24.9902Z" fill="white"/>
<path d="M14.0346 10.919L24.5565 0.361328L35.0811 10.919L24.5565 21.4732L14.0346 10.919Z" fill="white"/>
<path d="M28.0638 24.9902L38.5884 14.436L49.1123 24.9902L38.5884 35.5479L28.0638 24.9902Z" fill="white"/>
<path d="M14.0346 39.0712L24.5565 28.5107L35.0811 39.0712L24.5565 49.6233L14.0346 39.0712Z" fill="white"/>
<path d="M74.9866 21.1364H73.5785C73.4076 20.5054 73.2196 20.0266 73.0149 19.7028C72.8779 19.4128 72.4218 18.8878 71.6454 18.1279C70.8683 17.3681 69.7543 16.9885 68.3034 16.9885C66.5963 16.9885 65.235 17.7139 64.2202 19.1648C63.2041 20.6156 62.6963 22.5873 62.6963 25.0791C62.6963 27.5206 63.1999 29.4572 64.2071 30.8915C65.2136 32.3252 66.5798 33.0423 68.3034 33.0423C69.8563 33.0423 70.962 32.6861 71.6199 31.9731C72.2771 31.2608 72.6987 30.7179 72.8868 30.3438L73.5013 28.7145H74.935V33.2207L73.8341 33.7071C73.015 33.9972 72.0505 34.2534 70.9413 34.4753C69.8315 34.6964 68.807 34.808 67.868 34.808C65.2054 34.808 63.0759 33.942 61.4797 32.2094C59.8835 30.4775 59.0864 28.1606 59.0864 25.2575C59.0864 22.0995 59.7216 19.864 60.9933 18.5496C62.2651 17.2351 63.4466 16.3512 64.5399 15.8993C65.6318 15.4474 66.7417 15.2207 67.868 15.2207C68.7733 15.2207 69.7633 15.3227 70.838 15.528L72.605 15.8352H73.0659H73.3987C73.5013 15.8352 73.655 15.818 73.8596 15.7835L74.3976 15.7071L74.9866 15.6044V21.1364Z" fill="white"/>
<path d="M76.6503 15.6567H87.3533H89.4525C89.8624 15.6567 90.6815 15.5712 91.9105 15.4004V21.033H90.5244C90.3701 20.3847 90.2158 19.8687 90.0622 19.4843C89.9078 19.0999 89.6681 18.7375 89.3436 18.3958C89.0522 18.0541 88.663 17.8075 88.1752 17.6538C87.6868 17.5002 86.9469 17.4231 85.9542 17.4231H82.3601V23.491H84.0045C85.649 23.491 86.6727 23.367 87.075 23.1197C87.4773 22.8724 87.7818 22.1766 87.9878 21.0323H89.3236V28.0221H87.9927L87.7626 26.9274C87.7453 26.7882 87.651 26.5581 87.4801 26.2364C87.3092 25.9147 87.0447 25.6584 86.6865 25.4669C86.4467 25.3456 86.1739 25.2588 85.8674 25.2064H84.2546H82.3601V29.446C82.3601 30.611 82.5647 31.4164 82.9746 31.8614C83.401 32.2555 84.2546 32.4525 85.5353 32.4525C86.9007 32.4525 87.9038 32.3237 88.5438 32.066C89.1838 31.8083 89.7087 31.499 90.1187 31.1373C90.5279 30.777 90.8868 29.9434 91.1934 28.6373H92.4995V34.347L90.2716 34.1424H87.6089H76.7013V32.7859C77.2476 32.7859 77.6403 32.7384 77.8794 32.6454C78.1184 32.551 78.3361 32.4063 78.5325 32.2086C78.7288 32.0123 78.8569 31.8414 78.9169 31.6961C78.9761 31.5507 79.0237 31.3323 79.0574 31.0416V29.4777V20.3496C79.0574 18.9993 78.9121 18.1444 78.622 17.7854C78.3823 17.4093 77.7257 17.162 76.6503 17.0414V15.6567Z" fill="white"/>
<path d="M94.0097 32.7853C94.9315 32.7853 95.5674 32.5504 95.918 32.0799C96.268 31.6093 96.443 30.7165 96.443 29.4V20.4495V18.7569C96.443 18.5357 96.4127 18.347 96.3534 18.1933C96.2928 18.0397 96.1867 17.8599 96.0338 17.6553C95.8801 17.45 95.6707 17.2957 95.4062 17.1937C95.1409 17.0911 94.7448 17.0394 94.2157 17.0394V15.6567H100.565L100.822 16.6557L101.078 17.2447L102.333 19.2157L106.686 25.8472L107.121 26.5644L107.557 27.4345L107.966 28.4334L108.401 29.9187L108.734 29.8932L108.554 28.5622C108.452 27.606 108.401 26.5224 108.401 25.3105V20.318C108.401 18.9697 108.243 18.0866 107.927 17.6677C107.61 17.2495 106.898 17.0401 105.789 17.0401V15.6574H113.163V17.0401C112.173 17.0401 111.503 17.2798 111.153 17.7572C110.803 18.2354 110.628 19.1489 110.628 20.4971V29.9959V32.6076L110.808 34.1693L107.94 34.7322C107.53 33.7767 107.146 32.9748 106.787 32.3258C106.463 31.6603 106.087 31.0031 105.661 30.3541L100.182 21.9045L99.5156 20.752L99.1063 19.7537L98.7736 18.6528H98.5428L98.62 19.6786L98.6971 20.8326V22.3709V29.4503C98.6971 30.3734 98.7261 31.01 98.7867 31.3606C98.8466 31.7113 98.983 31.993 99.1966 32.2073C99.4095 32.4209 99.6527 32.5793 99.9262 32.6813C100.063 32.7157 100.28 32.7543 100.579 32.797C100.878 32.8397 101.104 32.8694 101.258 32.8866V34.1432H94.0097V32.7853Z" fill="white"/>
<path d="M118.794 32.7346C119.768 32.7346 120.424 32.5038 120.766 32.0416C121.106 31.58 121.278 30.6734 121.278 29.3217V20.3678V19.9841V19.6769C121.278 19.0114 121.252 18.5629 121.201 18.3328C121.15 18.1027 121.004 17.8678 120.766 17.6287C120.526 17.4241 120.292 17.2753 120.062 17.1809C119.832 17.0872 119.46 17.0404 118.948 17.0404V15.6577H127.397C128.217 15.6577 128.908 15.7004 129.472 15.7859C130.035 15.872 130.555 16.0256 131.034 16.2467C131.886 16.6229 132.544 17.152 133.005 17.834C133.465 18.5174 133.696 19.2594 133.696 20.062C133.696 20.7619 133.538 21.4109 133.222 22.0075C132.906 22.6048 132.552 23.0154 132.16 23.2372L131.264 23.7491L130.189 24.1328C130.598 24.201 130.974 24.3036 131.315 24.44C131.452 24.491 131.639 24.573 131.879 24.6832C132.117 24.7948 132.357 24.9188 132.596 25.0552C133.142 25.3281 133.629 25.8399 134.055 26.5915C134.482 27.3425 134.696 28.1788 134.696 29.1006C134.696 30.466 134.251 31.6482 133.364 32.6464C132.476 33.6454 131.435 34.1441 130.241 34.1441H128.294H118.796V32.7346H118.794ZM124.631 25.2578V29.6262V30.9358C124.683 31.3306 124.837 31.6475 125.093 31.8872C125.452 32.2813 126.083 32.4783 126.988 32.4783C127.738 32.4783 128.315 32.4274 128.716 32.3247C129.116 32.2214 129.603 31.9217 130.175 31.425C130.747 30.9283 131.034 30.1057 131.034 28.9587C131.034 27.5539 130.529 26.5344 129.522 25.9005C129.147 25.7118 128.719 25.5588 128.242 25.4383C127.764 25.3177 127.175 25.2578 126.476 25.2578H124.631ZM124.734 23.4914H126.373C127.67 23.4914 128.6 23.2696 129.164 22.8252C129.829 22.2624 130.162 21.4853 130.162 20.4953C130.162 18.4809 128.865 17.4737 126.27 17.4737H124.733V23.4914H124.734Z" fill="white"/>
<path d="M136.359 28.5864H137.742C138.049 29.9353 138.591 30.9721 139.367 31.6975C140.144 32.4237 141.13 32.7854 142.325 32.7854C143.349 32.7854 144.207 32.4912 144.899 31.9022C145.59 31.3138 145.935 30.5753 145.935 29.688C145.935 28.9708 145.718 28.3653 145.282 27.8699C144.846 27.3746 144.074 26.88 142.965 26.3846L141.301 25.642C139.747 24.9248 138.586 24.1229 137.819 23.2349C137.085 22.3131 136.718 21.2556 136.718 20.0604C136.718 18.5923 137.23 17.3977 138.254 16.4759C139.278 15.5541 140.644 15.0933 142.351 15.0933C142.846 15.0933 143.67 15.1959 144.822 15.4005C145.974 15.6051 146.712 15.7078 147.036 15.7078C147.275 15.7078 147.455 15.6906 147.574 15.6561L148.368 15.4267V21.0338H146.96C146.857 20.3339 146.746 19.8475 146.627 19.574C146.525 19.2502 146.192 18.7335 145.628 18.0253C145.065 17.3171 144.1 16.9623 142.735 16.9623C141.865 16.9623 141.164 17.2013 140.636 17.6795C140.107 18.1576 139.842 18.7803 139.842 19.5485C139.842 20.214 140.056 20.7562 140.482 21.1743C140.908 21.5925 141.758 22.0796 143.03 22.6342C144.302 23.1887 145.172 23.5897 145.641 23.8377C146.111 24.085 146.828 24.5459 147.792 25.2203C148.756 25.8948 149.238 27.1624 149.238 29.0232C149.238 30.6966 148.671 32.0613 147.536 33.1195C146.401 34.1777 144.919 34.7067 143.093 34.7067C142.666 34.7067 141.728 34.5827 140.277 34.3354C138.825 34.0881 137.904 33.9641 137.512 33.9641C137.256 33.9641 137.077 33.9813 136.975 34.0151L136.36 34.2459V28.5864H136.359Z" fill="white"/>
<path d="M150.312 32.837C151.302 32.837 152.006 32.5759 152.424 32.0523C152.843 31.5287 153.052 30.5387 153.052 29.0803L153.692 20.4867V19.0455C153.692 18.3945 153.508 17.8923 153.141 17.5409C152.774 17.1896 152.181 17.0132 151.362 17.0132V15.6567H158.557L158.889 17.3721L159.683 19.4465L162.448 26.667L162.678 27.4352L162.935 28.306L163.139 29.3297C163.19 29.6204 163.216 30.0296 163.216 30.5587L163.446 30.4822L163.6 29.3814C163.651 29.0741 163.754 28.6945 163.907 28.2419C164.061 27.79 164.283 27.2133 164.573 26.5141L167.569 19.0469L168.183 17.348L168.516 15.6581H175.455V17.0146C174.567 17.0146 173.948 17.1854 173.599 17.5258C173.249 17.8668 173.074 18.4296 173.074 19.2129L173.1 20.4916L173.561 29.132C173.561 29.5922 173.569 29.9752 173.587 30.2818C173.603 30.5883 173.638 30.8274 173.689 30.9976C173.808 31.3379 174.035 31.7009 174.368 32.084C174.701 32.4677 175.396 32.7192 176.455 32.8383V34.1445H167.544V32.837C168.141 32.837 168.569 32.7949 168.825 32.7088C169.08 32.6227 169.332 32.4567 169.58 32.208C169.827 31.9607 170.002 31.6823 170.105 31.3744C170.207 31.0664 170.258 30.5876 170.258 29.9373V29.3469L169.926 22.2132V21.9314V20.8532V20.0383C169.926 19.7882 169.945 19.5677 169.984 19.3783L170.157 18.42H169.827L169.574 19.5484L169.135 20.8023L168.574 22.3654L165.582 29.8946L165.047 31.2525L164.662 32.3933L164.278 34.1418L161.586 34.4745L160.971 32.2218C160.937 32.0854 160.839 31.7905 160.676 31.3386C160.514 30.8866 160.322 30.3617 160.1 29.7637L157.126 21.9803L156.614 20.5715L156.229 19.4451L156.025 18.4207H155.691L155.717 20.4475V21.4471V22.5755L155.383 29.3731V29.7575C155.383 30.886 155.587 31.681 155.991 32.1432C156.396 32.6048 157.09 32.8356 158.072 32.8356V34.1418H150.314V32.837H150.312Z" fill="white"/>
</svg>
