<svg width="92" height="75" viewBox="0 0 92 75" fill="none" xmlns="http://www.w3.org/2000/svg">
<path d="M38.0746 18.81V19.6771L40.9669 19.8337L41.0574 19.8756L46.7736 25.5125L44.7814 27.6834C37.5782 27.1605 31.9435 21.1001 31.9435 13.8615C31.9435 11.5229 32.5326 9.21525 33.6556 7.18555H40.9823L41.0552 7.21643L46.7758 12.8511L44.402 15.4389L41.8185 12.6194L41.6486 12.5025L41.3309 12.3657L41.1191 12.3216L36.8082 12.4738V13.3629L40.9801 13.5151L41.0552 13.5482L46.7736 19.174L44.402 21.7619L41.8207 18.9468L41.6508 18.8277L41.3331 18.6909L41.1213 18.6468L38.0746 18.81Z" fill="white"/>
<path d="M56.2183 23.0063C53.604 25.9847 49.8689 27.6945 45.8999 27.7232L50.6521 23.0394L50.7249 23.0063H56.2183Z" fill="white"/>
<path d="M59.6667 13.8616C59.6667 16.7296 58.7997 19.4741 57.1605 21.8105H50.586L50.3742 21.8568L50.0587 21.9958L49.8933 22.1127L47.3098 24.9279L44.9403 22.3466L50.6544 16.712L50.7449 16.6723L53.6372 16.5134V15.6464L50.5926 15.4809L50.3764 15.5272L50.0587 15.664L49.8933 15.781L47.3032 18.6027L44.9337 16.0126L50.6544 10.3802L50.7294 10.3471L54.9035 10.1926V9.30575L50.5904 9.15132L50.3764 9.19765L50.0609 9.33664L49.8955 9.45357L47.3076 12.2753L41.8208 6.28767L41.6509 6.17074L41.3332 6.03175L41.1258 5.98763H34.3969C36.9914 2.23267 41.2339 0 45.8052 0C53.4475 0 59.6667 6.21928 59.6667 13.8616Z" fill="white"/>
<path d="M8.87334 41.5313C8.43651 41.0636 7.92908 40.7194 7.34885 40.501C6.77083 40.2848 6.09794 40.1767 5.33239 40.1767C4.74774 40.1767 4.21826 40.2561 3.73951 40.4149C3.26076 40.5716 2.85041 40.79 2.51066 41.0702C2.1709 41.3526 1.90616 41.6835 1.71863 42.0674C1.5311 42.4513 1.43624 42.8727 1.43624 43.3249C1.43624 43.7948 1.5289 44.2228 1.71201 44.6111C1.89513 44.9994 2.15987 45.3326 2.50624 45.6083C2.85041 45.8841 3.26738 46.1003 3.75716 46.2548C4.24914 46.4092 4.79849 46.4864 5.41181 46.4864C6.15971 46.4864 6.81495 46.3783 7.37533 46.1665C7.9335 45.9525 8.43651 45.6039 8.87996 45.1186L10.0625 45.7738C9.46019 46.4776 8.77626 46.9806 8.01733 47.2851C7.2584 47.5873 6.36268 47.7395 5.33018 47.7395C4.60213 47.7395 3.92483 47.6425 3.29606 47.4483C2.6695 47.2498 2.12457 46.9828 1.66568 46.6386C0.553756 45.8025 0 44.7016 0 43.3293C0 41.9902 0.564787 40.8937 1.68995 40.0443C2.14884 39.6913 2.68936 39.4177 3.31592 39.2214C3.94027 39.0272 4.61096 38.9302 5.33239 38.9302C6.35827 38.9302 7.27605 39.1111 8.08352 39.4751C8.89099 39.8391 9.5705 40.3774 10.1243 41.09L8.87334 41.5313Z" fill="white"/>
<path d="M22.7612 43.3343C22.7612 42.3658 22.3464 41.5737 21.5213 40.9582C21.1815 40.7111 20.7888 40.5192 20.3387 40.3802C19.8843 40.2434 19.3967 40.175 18.8672 40.175C18.2848 40.175 17.7531 40.2544 17.2765 40.4133C16.7978 40.5699 16.3852 40.7883 16.0411 41.0685C15.6947 41.3509 15.4277 41.684 15.238 42.0723C15.0439 42.4606 14.949 42.882 14.949 43.3343C14.949 43.802 15.0417 44.2322 15.2248 44.6205C15.4079 45.0066 15.6704 45.3397 16.0124 45.6177C16.3521 45.8935 16.7647 46.1097 17.2479 46.2619C17.731 46.4163 18.2715 46.4913 18.8672 46.4913C19.4651 46.4913 20.0034 46.4163 20.4822 46.2619C20.9609 46.1097 21.3668 45.8935 21.7066 45.6177C22.0419 45.3419 22.3023 45.0088 22.4854 44.6205C22.6707 44.2322 22.7612 43.802 22.7612 43.3343ZM24.1974 43.3343C24.1974 44.6999 23.637 45.8008 22.5207 46.6436C22.0618 46.9877 21.5191 47.2591 20.8947 47.4533C20.2704 47.6474 19.5953 47.7445 18.8672 47.7445C18.1392 47.7445 17.4597 47.6452 16.8287 47.4466C16.1955 47.2459 15.6506 46.9745 15.1895 46.6303C14.0709 45.7876 13.5106 44.6889 13.5106 43.3343C13.5106 42.0017 14.0798 40.9075 15.2115 40.0492C15.6793 39.6963 16.2242 39.4205 16.8485 39.2219C17.4729 39.0212 18.1436 38.9219 18.865 38.9219C19.5776 38.9219 20.2483 39.0212 20.8749 39.2219C21.5036 39.4205 22.0486 39.6963 22.5052 40.0492C23.6348 40.9075 24.1974 42.0017 24.1974 43.3343Z" fill="white"/>
<path d="M37.4104 43.3343C37.4104 42.3658 36.9979 41.5737 36.1683 40.9582C35.8308 40.7111 35.4359 40.5192 34.9858 40.3802C34.5335 40.2434 34.0438 40.175 33.5143 40.175C32.9318 40.175 32.4001 40.2544 31.9236 40.4133C31.4471 40.5699 31.0345 40.7883 30.6881 41.0685C30.3418 41.3509 30.0748 41.684 29.8829 42.0723C29.6909 42.4606 29.5961 42.882 29.5961 43.3343C29.5961 43.802 29.6865 44.2322 29.8718 44.6205C30.0572 45.0066 30.3153 45.3397 30.6595 45.6177C30.9992 45.8935 31.4118 46.1097 31.8949 46.2619C32.3781 46.4163 32.9164 46.4913 33.5143 46.4913C34.1122 46.4913 34.6483 46.4163 35.1292 46.2619C35.608 46.1097 36.0161 45.8935 36.3537 45.6177C36.6912 45.3419 36.9515 45.0088 37.1347 44.6205C37.32 44.2322 37.4104 43.802 37.4104 43.3343ZM38.8445 43.3343C38.8445 44.6999 38.2841 45.8008 37.1677 46.6436C36.7089 46.9877 36.1661 47.2591 35.5418 47.4533C34.9174 47.6474 34.2423 47.7445 33.5143 47.7445C32.7884 47.7445 32.1067 47.6452 31.4758 47.4466C30.8448 47.2459 30.2976 46.9745 29.8388 46.6303C28.7202 45.7876 28.1642 44.6889 28.1642 43.3343C28.1642 42.0017 28.729 40.9075 29.863 40.0492C30.3307 39.6963 30.8757 39.4205 31.5 39.2219C32.1244 39.0212 32.7951 38.9219 33.5165 38.9219C34.2291 38.9219 34.8976 39.0212 35.5285 39.2219C36.1551 39.4205 36.6978 39.6963 37.1589 40.0492C38.2819 40.9075 38.8445 42.0017 38.8445 43.3343Z" fill="white"/>
<path d="M50.8046 42.7542C51.0737 42.5358 51.2083 42.2203 51.2083 41.8056C51.2083 40.8944 50.6435 40.4399 49.5183 40.4399H44.636V43.083H49.611C50.1405 43.0808 50.5376 42.9727 50.8046 42.7542ZM51.0031 39.3699C51.3451 39.4935 51.6385 39.6678 51.8746 39.895C52.1128 40.12 52.2981 40.3936 52.4261 40.7157C52.5563 41.0378 52.6203 41.3952 52.6203 41.7857C52.6203 42.6108 52.3621 43.244 51.8525 43.6786C51.3385 44.1177 50.5839 44.3361 49.5889 44.3361H44.636V47.5064H43.2571V39.189H49.8515C50.2729 39.1868 50.6545 39.2486 51.0031 39.3699Z" fill="white"/>
<path d="M56.2757 47.5039V39.1865H64.6637V40.4396H57.6546V42.5642H62.5259V43.8173H57.6546V46.253H64.9814V47.5039H56.2757Z" fill="white"/>
<path d="M76.6609 42.7539C76.9345 42.5355 77.0713 42.2201 77.0713 41.8053C77.0713 40.8941 76.4955 40.4396 75.3482 40.4396H70.499V43.0805H75.474C75.9946 43.0805 76.3896 42.9724 76.6609 42.7539ZM76.9543 47.5039L74.7018 44.3336H70.499V47.5039H69.1179V39.1865H75.6792C76.5594 39.1865 77.2456 39.4204 77.7375 39.8881C78.2339 40.3536 78.481 40.9956 78.481 41.8053C78.481 42.1737 78.4281 42.498 78.3222 42.7826C78.2119 43.0672 78.0641 43.3099 77.8655 43.5107C77.6714 43.7159 77.4441 43.8769 77.175 44.0005C76.9146 44.124 76.6278 44.2122 76.319 44.2652L78.5516 47.5039H76.9543Z" fill="white"/>
<path d="M88.0695 40.4285C87.454 40.274 86.8186 40.199 86.1546 40.199C85.2897 40.199 84.6389 40.3005 84.191 40.5035C83.7454 40.7065 83.5248 40.98 83.5248 41.3242C83.5248 41.6904 83.7652 41.9596 84.2484 42.1273C84.4778 42.2133 84.7293 42.2729 85.0139 42.306C85.2919 42.3413 85.6008 42.3677 85.9339 42.3876C86.2671 42.4074 86.6245 42.4273 87.0061 42.4516C87.39 42.4758 87.796 42.5133 88.2151 42.5663C89.2565 42.6965 90.0264 42.9502 90.5228 43.3252C91.0192 43.7003 91.2707 44.2364 91.2707 44.9335C91.2707 45.8138 90.8847 46.4955 90.1147 46.9787C89.3469 47.4618 88.2173 47.7023 86.7304 47.7023C85.667 47.7023 84.7271 47.5898 83.9108 47.3626C83.0946 47.1375 82.382 46.7823 81.7797 46.3014L82.5364 45.302C83.2093 45.7145 83.8888 46.019 84.5705 46.2087C85.2522 46.4007 85.9759 46.4955 86.7436 46.4955C87.7386 46.4955 88.4953 46.3632 89.005 46.1006C89.519 45.8381 89.7749 45.4785 89.7749 45.0262C89.7749 44.7262 89.6911 44.4967 89.5168 44.3379C89.3469 44.1768 89.0954 44.0533 88.7645 43.9694C88.4336 43.8856 88.032 43.826 87.5533 43.7907C87.0745 43.7576 86.5274 43.7201 85.9163 43.6804C85.2721 43.6363 84.7095 43.5723 84.233 43.4929C83.7542 43.4113 83.3549 43.2899 83.0328 43.1289C82.7085 42.9678 82.4702 42.7582 82.3091 42.4979C82.1481 42.2376 82.0665 41.9066 82.0665 41.5073C82.0665 40.7263 82.4261 40.113 83.1453 39.6585C83.8623 39.2062 84.9014 38.979 86.256 38.979C88.0519 38.979 89.5543 39.3894 90.7611 40.2101L89.9227 41.1411C89.305 40.819 88.6851 40.5807 88.0695 40.4285Z" fill="white"/>
<path d="M33.8409 62.0425V58.3559H27.1782V62.0425H25.7993V53.7251H27.1782V57.1028H33.8409V53.7251H35.222V62.0425H33.8409Z" fill="white"/>
<path d="M41.4479 53.7251H40.069V62.0425H41.4479V53.7251Z" fill="white"/>
<path d="M46.1913 62.0425V53.7251H47.5724V60.7916H53.9946V62.0425H46.1913Z" fill="white"/>
<path d="M57.4494 62.0425V53.7251H58.8305V60.7916H65.2527V62.0425H57.4494Z" fill="white"/>
<path d="M31.4516 69.7359C31.6767 69.8043 31.9789 69.8374 32.3562 69.8374H32.846C32.8791 69.7536 32.9033 69.6764 32.9254 69.6014C33.0247 69.3234 33.0908 69.0939 33.1217 68.9152C33.3997 68.9527 33.6424 68.9991 33.8454 69.0564C33.8873 69.0785 33.9094 69.1072 33.9094 69.1425C33.9094 69.2065 33.8652 69.244 33.777 69.2594C33.6556 69.2903 33.5431 69.3124 33.4372 69.3234C33.3644 69.5087 33.296 69.6786 33.232 69.8352H35.9258L36.2965 69.3874C36.5016 69.5396 36.6892 69.6896 36.8635 69.8352C36.912 69.8617 36.9363 69.8904 36.9363 69.9213C36.9363 70.0051 36.8943 70.047 36.8105 70.047H33.1482C33.0489 70.2721 32.9519 70.4883 32.857 70.6934C32.6783 71.0663 32.5018 71.4083 32.3297 71.7171H33.938V71.0244C33.938 70.7464 33.9314 70.5346 33.9138 70.3934C34.2072 70.4353 34.4543 70.4927 34.655 70.5677C34.7234 70.5942 34.7565 70.6317 34.7565 70.678C34.7565 70.7309 34.7212 70.764 34.655 70.7795C34.5602 70.8324 34.4477 70.8633 34.3153 70.8743V71.7171H35.553L35.8993 71.3399C36.0891 71.4744 36.2634 71.6046 36.4266 71.7259C36.4752 71.759 36.4994 71.7899 36.4994 71.8208C36.4994 71.9002 36.4641 71.9399 36.3979 71.9399H34.3175V72.9482H36.2479L36.6252 72.5158C36.8237 72.6636 37.0091 72.807 37.1834 72.9482C37.2319 72.9746 37.254 73.0055 37.254 73.043C37.254 73.1313 37.2076 73.1754 37.1194 73.1754H34.3087V74.1836C34.3087 74.2984 34.3153 74.3778 34.3263 74.4197C34.3351 74.5146 34.3418 74.5896 34.3418 74.647C34.3418 74.8212 34.2579 74.9073 34.0903 74.9073C33.9689 74.9073 33.9071 74.8632 33.9071 74.7749C33.9071 74.6646 33.9138 74.5234 33.9248 74.3491C33.9292 74.166 33.9314 74.0049 33.9314 73.8682V73.1754H32.0407C31.6723 73.1798 31.4208 73.1931 31.284 73.2085L31.134 72.8621C31.3612 72.9195 31.6634 72.9482 32.0407 72.9482H33.9314V71.9399H32.2062C32.1642 72.0017 32.087 72.0348 31.9789 72.0348C31.8576 72.0348 31.798 72.0039 31.798 71.9399L31.8135 71.876C31.8554 71.8274 31.9436 71.6818 32.0738 71.4347C32.2723 71.095 32.4444 70.7751 32.5856 70.4816C32.6474 70.336 32.7092 70.1904 32.7665 70.0492H32.3562C31.99 70.0536 31.7362 70.0669 31.6017 70.0889L31.4516 69.7359ZM36.5524 68.0041C36.762 68.1563 36.9605 68.3063 37.1436 68.4519C37.19 68.4784 37.2142 68.5093 37.2142 68.5468C37.2142 68.6262 37.1701 68.6659 37.0819 68.6659H31.0016V70.4684C31.0016 70.9141 30.9861 71.3354 30.9552 71.7281C30.9332 72.0745 30.8935 72.4297 30.8361 72.7915C30.7876 73.085 30.7214 73.3563 30.6309 73.6034C30.5625 73.824 30.4699 74.0358 30.3463 74.241C30.2515 74.4197 30.1125 74.5984 29.9294 74.7771L29.8433 74.7131C29.947 74.5609 30.0397 74.391 30.1191 74.2013C30.1919 74.0336 30.2581 73.8549 30.3154 73.6652C30.3772 73.4556 30.4302 73.2107 30.4721 72.9327C30.5184 72.6172 30.5537 72.2929 30.5736 71.9554C30.6067 71.5097 30.6199 71.0133 30.6199 70.4662C30.6243 69.5043 30.6155 68.7387 30.589 68.1673L31.0303 68.4519H33.6689C33.6424 68.4409 33.6203 68.399 33.6071 68.3262C33.585 68.2468 33.5519 68.1695 33.5056 68.0901C33.4593 68.0063 33.4041 67.9291 33.3402 67.8607C33.2872 67.7923 33.2122 67.7129 33.1195 67.6246L33.2453 67.5386C33.3556 67.5915 33.4593 67.6489 33.5519 67.7129C33.6512 67.7702 33.7329 67.8254 33.7968 67.8783C33.8652 67.9313 33.9093 67.9776 33.9314 68.0195C33.9535 68.057 33.9623 68.0945 33.9623 68.1365C33.9623 68.2357 33.9491 68.3152 33.9248 68.3725C33.9027 68.4144 33.8807 68.4409 33.8542 68.4519H36.1773L36.5524 68.0041Z" fill="white"/>
<path d="M41.428 74.1219H44.5233V71.5693H41.428V74.1219ZM41.428 71.3443H44.5233V69.2418H41.428V71.3443ZM42.5377 67.5386C42.7936 67.6268 43.0186 67.7195 43.2062 67.8143C43.2437 67.8452 43.2613 67.8783 43.2613 67.9092C43.2613 67.9578 43.2084 67.9886 43.1025 68.0041C42.9877 68.0239 42.9039 68.035 42.851 68.035C42.7671 68.1828 42.6811 68.324 42.5906 68.4608C42.4913 68.5865 42.3921 68.699 42.2928 68.7983C42.22 68.8711 42.1339 68.9439 42.0325 69.0101H44.4505L44.702 68.6637C44.8961 68.7851 45.0351 68.8976 45.1189 69.0013C45.1564 69.0388 45.1741 69.0763 45.1741 69.1116C45.1741 69.1579 45.0814 69.2396 44.8983 69.3565V73.4203C44.8983 73.8152 44.9027 74.0711 44.9138 74.1925C44.9248 74.3447 44.9292 74.4682 44.9292 74.5631C44.9292 74.6315 44.8983 74.6889 44.8343 74.7374C44.7659 74.7639 44.713 74.7771 44.6755 74.7771C44.5696 74.7771 44.5188 74.744 44.5188 74.6823V74.3359H41.4235V74.7131C41.4235 74.7815 41.3728 74.8146 41.2735 74.8146C41.225 74.8146 41.1654 74.7992 41.0926 74.7683C41.0397 74.722 41.0132 74.6646 41.0132 74.594C41.0132 74.4991 41.0198 74.3778 41.0375 74.2234C41.0639 74.102 41.0772 73.8483 41.0772 73.46V69.2087C41.0772 69.0035 41.0551 68.8226 41.0132 68.6659L41.4919 69.0123H41.7677C41.8957 68.8755 41.9972 68.7454 42.0744 68.6174C42.1428 68.5115 42.2112 68.3946 42.2796 68.2622C42.3391 68.1254 42.3899 68.0019 42.4384 67.8916C42.4759 67.7791 42.5068 67.6599 42.5377 67.5386ZM37.94 68.2004C38.165 68.2578 38.4694 68.2887 38.8533 68.2887H39.9255L40.2719 67.9092C40.4616 68.046 40.6381 68.174 40.7992 68.2953C40.8455 68.3218 40.8698 68.3505 40.8698 68.3813C40.8698 68.4696 40.8345 68.5159 40.7683 68.5159H39.5174V70.5875H39.8947L40.241 70.2478C40.4087 70.3691 40.5675 70.4861 40.7132 70.603C40.7485 70.6295 40.7683 70.6559 40.7683 70.6824C40.7683 70.7707 40.7374 70.8148 40.6734 70.8148H39.5152V72.9967C39.5836 72.9702 39.6476 72.946 39.7115 72.9261C40.0204 72.8114 40.3712 72.6636 40.7661 72.4849L40.797 72.6349C40.4727 72.8401 40.1837 73.0033 39.93 73.1247C39.663 73.2615 39.4049 73.3784 39.1578 73.4799C38.9327 73.5791 38.6901 73.6652 38.4319 73.7402C38.379 73.9299 38.3371 74.0226 38.3062 74.0226C38.2687 74.0226 38.1451 73.813 37.9355 73.3938C38.2753 73.3409 38.5864 73.2747 38.8644 73.1975C38.9526 73.1776 39.0386 73.1534 39.1247 73.1269V70.8192H38.968C38.5996 70.8258 38.3503 70.8346 38.2201 70.8523L38.0547 70.5037C38.2863 70.5633 38.5908 70.5897 38.9703 70.5897H39.1269V68.5181H38.8511C38.4783 68.5225 38.2224 68.5336 38.0878 68.549L37.94 68.2004Z" fill="white"/>
<path d="M51.3912 67.4434C51.5898 67.5162 51.742 67.5934 51.8479 67.6728C51.9009 67.7037 51.9273 67.7434 51.9273 67.7897C51.9273 67.8316 51.8126 67.8515 51.581 67.8515C51.239 68.0986 50.9279 68.3082 50.6455 68.4825C50.5661 68.5266 50.4911 68.5641 50.4161 68.6016C50.5264 68.6435 50.6257 68.6832 50.7139 68.7185C50.9875 68.8289 51.239 68.9414 51.4706 69.0561C51.5655 69.1046 51.6471 69.162 51.7133 69.2304C51.7817 69.2877 51.8258 69.3429 51.8479 69.3958C51.9009 69.4532 51.9273 69.515 51.9273 69.5768C51.9273 69.7091 51.8832 69.7731 51.7928 69.7731C51.7729 69.7731 51.7266 69.751 51.6582 69.7091C51.5435 69.6209 51.3692 69.5039 51.1375 69.3627C50.9323 69.2304 50.6367 69.0759 50.2484 68.8972C50.1756 68.8664 50.105 68.8333 50.0366 68.8024C49.9528 68.8443 49.8689 68.884 49.7851 68.9193C49.4652 69.0605 49.1541 69.1818 48.8475 69.2811C48.5364 69.398 48.2011 69.4973 47.8392 69.5812C47.451 69.6694 47.0384 69.7555 46.6016 69.8327L46.5001 69.6981C47.0362 69.6076 47.4686 69.5062 47.7995 69.3914C48.1569 69.2922 48.5099 69.162 48.8629 69.0053C49.1453 68.9061 49.4233 68.7847 49.6902 68.6435C49.4498 68.5487 49.1872 68.4494 48.9026 68.3435C48.3731 68.1383 47.8657 67.9839 47.3826 67.8802L47.5083 67.7147C48.1746 67.8714 48.7747 68.0434 49.3042 68.2266C49.5711 68.306 49.816 68.3854 50.0366 68.4626C50.3477 68.2883 50.5992 68.1229 50.7933 67.9662C51.0338 67.803 51.2346 67.6287 51.3912 67.4434ZM45.8779 70.2717C46.103 70.3357 46.4052 70.3666 46.7825 70.3666H48.5541C48.596 70.2938 48.6335 70.2166 48.6644 70.1393C48.7901 69.8503 48.8806 69.5812 48.9313 69.3274C49.1784 69.365 49.3615 69.4113 49.4829 69.4686C49.5579 69.4885 49.5932 69.5194 49.5932 69.5547C49.5932 69.5878 49.5513 69.6187 49.4652 69.6496C49.3814 69.676 49.3086 69.6937 49.2446 69.7047C49.1453 69.9628 49.0504 70.1835 48.9622 70.3666H52.395L52.7988 69.9011C53.0084 70.0599 53.2091 70.2121 53.3967 70.3577C53.4386 70.3886 53.4584 70.4261 53.4584 70.4681C53.4584 70.5475 53.4187 70.585 53.3415 70.585H48.8475C48.8056 70.6578 48.7658 70.7284 48.7283 70.7902C48.5276 71.1145 48.2871 71.4255 48.0047 71.719H49.8072V71.3086C49.8072 71.0306 49.7961 70.821 49.7763 70.6776C50.0807 70.7151 50.33 70.7725 50.5242 70.8519C50.5992 70.8828 50.6345 70.9203 50.6345 70.9622C50.6345 71.0086 50.597 71.0439 50.5242 71.0637C50.4293 71.1167 50.3168 71.1476 50.1844 71.1586V71.719H52.0509L52.3024 71.3726C52.4921 71.4939 52.6289 71.6065 52.7127 71.7124C52.748 71.7543 52.7679 71.7918 52.7679 71.8227C52.7679 71.869 52.662 71.9506 52.4524 72.0676V73.7376C52.4524 73.9164 52.4149 74.0531 52.3421 74.148C52.2781 74.2362 52.1877 74.3046 52.0663 74.3532C51.967 74.4061 51.8744 74.4326 51.7905 74.4326C51.7905 74.3179 51.7641 74.2318 51.7111 74.1811C51.6538 74.1083 51.5479 74.0487 51.3978 74.0002C51.2346 73.9472 51.0515 73.9163 50.8463 73.9053V73.709C51.2191 73.7972 51.5545 73.8435 51.8545 73.8435C51.9604 73.8435 52.0288 73.8281 52.0597 73.795C52.0906 73.7641 52.1082 73.6957 52.1082 73.5898V71.944H50.1866V74.2826C50.1866 74.4039 50.1933 74.4833 50.2021 74.5186C50.2131 74.6069 50.2175 74.6841 50.2175 74.7481C50.2175 74.9158 50.1359 74.9996 49.9726 74.9996C49.8403 74.9996 49.7763 74.9599 49.7763 74.8827C49.7763 74.7657 49.7829 74.6201 49.7917 74.4414C49.8028 74.2649 49.8072 74.1039 49.8072 73.9627V71.9462H48.0201V73.7729C48.0201 73.8943 48.0268 73.9759 48.0356 74.0178C48.0422 74.1127 48.0444 74.1921 48.0444 74.2539C48.0444 74.4216 47.9606 74.5054 47.7929 74.5054C47.6716 74.5054 47.612 74.4613 47.612 74.3708C47.612 74.2605 47.6186 74.1193 47.6274 73.945C47.6385 73.7597 47.6429 73.6009 47.6429 73.4641V72.0786C47.4642 72.2396 47.2877 72.383 47.1156 72.5044C46.8112 72.6985 46.4295 72.9236 45.9728 73.1817L45.8779 73.0184C46.2706 72.7868 46.5949 72.5772 46.8465 72.3874C47.0869 72.2132 47.3142 72.0124 47.5326 71.7807C47.7466 71.5712 47.9584 71.3219 48.1636 71.0328C48.2672 70.8916 48.3599 70.7438 48.4393 70.5916H46.7847C46.4162 70.5982 46.1647 70.6093 46.0279 70.6225L45.8779 70.2717Z" fill="white"/>
<path d="M59.2276 70.9339C59.5519 71.2119 59.8387 71.4965 60.0858 71.7855C60.3373 72.048 60.5337 72.2775 60.6771 72.4716C60.8139 72.6437 60.9176 72.7982 60.9926 72.9283C61.0389 73.043 61.0786 73.16 61.1095 73.2747C61.136 73.3696 61.1492 73.4755 61.1492 73.5902C61.1426 73.7579 61.0808 73.8417 60.9595 73.8417C60.9088 73.8417 60.8602 73.8174 60.8183 73.7711C60.772 73.7137 60.6661 73.4953 60.5028 73.1181C60.3396 72.7342 60.1586 72.3944 59.9601 72.0944C59.7659 71.7789 59.4902 71.4259 59.1328 71.031L59.2276 70.9339ZM55.8257 70.7839C56.0728 70.8589 56.2978 70.9427 56.503 71.0354C56.5339 71.0685 56.5493 71.0994 56.5493 71.1303C56.5493 71.1766 56.5162 71.2119 56.4478 71.2318C56.3265 71.2626 56.214 71.2781 56.1081 71.2781C56.0198 71.5406 55.9117 71.7921 55.786 72.0348C55.6712 72.2819 55.5411 72.5334 55.3999 72.7915C55.2675 73.0122 55.1329 73.2107 54.9895 73.3894C54.8572 73.5725 54.6851 73.7623 54.4689 73.9564L54.3519 73.8704C54.5681 73.6453 54.7446 73.4049 54.888 73.1467C55.0557 72.8621 55.2168 72.5643 55.369 72.2488C55.5102 71.9289 55.6337 71.6068 55.7396 71.2803C55.7793 71.1214 55.808 70.956 55.8257 70.7839ZM56.0529 67.5386C56.311 67.6268 56.5339 67.7195 56.7236 67.8143C56.7589 67.8452 56.7788 67.8783 56.7788 67.9092C56.7788 67.9578 56.7258 67.9886 56.6221 68.0041C56.5008 68.0261 56.4169 68.0372 56.3706 68.0372C56.1985 68.4211 56.0066 68.7895 55.797 69.1469H60.783L61.0014 68.8954C61.1757 69.0123 61.3346 69.1403 61.4824 69.2815C61.4934 69.2969 61.4978 69.3146 61.4978 69.33C61.4978 69.3719 61.4471 69.4072 61.3478 69.4315C61.2529 69.4513 61.1691 69.4734 61.0963 69.4955C60.9749 69.6742 60.836 69.8595 60.6793 70.0558C60.5161 70.2721 60.3484 70.4596 60.1741 70.6228L60.0572 70.5368C60.2469 70.3228 60.3969 70.1176 60.5072 69.9235C60.6286 69.7293 60.719 69.5418 60.783 69.3631H58.0429V74.1903C58.0429 74.369 57.9988 74.5013 57.9083 74.5918C57.8289 74.6756 57.723 74.7418 57.5928 74.797C57.4781 74.8543 57.3722 74.883 57.2773 74.883L57.2685 74.7727C57.2531 74.7043 57.2222 74.6514 57.1759 74.6161C57.1075 74.5521 56.9817 74.4947 56.7964 74.4418C56.5978 74.3888 56.3684 74.3557 56.1103 74.3403V74.1594C56.5206 74.2432 56.8891 74.2851 57.2134 74.2851C57.3921 74.2851 57.5068 74.2675 57.5597 74.23C57.6281 74.1991 57.6612 74.1197 57.6612 73.9939V69.3631H55.6602C55.4925 69.6256 55.3182 69.8573 55.1395 70.0558C54.9035 70.3228 54.6189 70.5986 54.2902 70.8832L54.1556 70.7883C54.4667 70.4794 54.7204 70.1904 54.9189 69.9235C55.0866 69.6874 55.2543 69.4249 55.4241 69.1359C55.5808 68.8468 55.7154 68.5777 55.8257 68.3262C55.9183 68.0835 55.9955 67.8232 56.0529 67.5386Z" fill="white"/>
</svg>
