<svg width="66" height="81" viewBox="0 0 66 81" fill="none" xmlns="http://www.w3.org/2000/svg">
<path d="M7.14254 77.4266C7.14254 76.9643 6.821 76.7275 6.2947 76.7275H5.22451V78.1336H6.3155C6.8402 78.1336 7.14094 77.8537 7.14094 77.441V77.4266H7.14254ZM7.12174 80.6531L6.07235 79.0854H5.22611V80.6531H4.14792V75.7549H6.38749C7.54246 75.7549 8.23513 76.3644 8.23513 77.3706V77.385C8.23513 78.1752 7.80801 78.6727 7.18573 78.9031L8.3823 80.6531H7.12174Z" fill="white"/>
<path d="M10.1787 80.6531V75.7549H13.874V76.7131H11.2505V77.7065H13.5589V78.6663H11.2505V79.6949H13.9092V80.6531H10.1787Z" fill="white"/>
<path d="M18.0028 77.0137L17.3517 78.6022H18.6539L18.0028 77.0137ZM19.4937 80.653L19.049 79.562H16.9934L16.5487 80.653H15.4593L17.5421 75.7563H18.5291L20.6119 80.653H19.4937Z" fill="white"/>
<path d="M22.3412 80.6531V75.7549H23.4194V79.6725H25.8605V80.6531H22.3412Z" fill="white"/>
<path d="M30.7172 80.6531V75.7549H34.4109V76.7131H31.7874V77.7065H34.0957V78.6663H31.7874V79.6949H34.4461V80.6531H30.7172Z" fill="white"/>
<path d="M38.1206 80.7226C37.3783 80.7226 36.6297 80.4635 36.0426 79.9388L36.6793 79.1757C37.1192 79.5405 37.5815 79.7708 38.1414 79.7708C38.5829 79.7708 38.8485 79.5964 38.8485 79.3085V79.2941C38.8485 79.0206 38.6805 78.8814 37.8614 78.6718C36.8744 78.4191 36.2378 78.1471 36.2378 77.1745V77.1601C36.2378 76.2707 36.9512 75.6836 37.9526 75.6836C38.6661 75.6836 39.2756 75.9076 39.7715 76.3059L39.2116 77.1185C38.7781 76.8178 38.351 76.6354 37.9382 76.6354C37.5255 76.6354 37.308 76.8242 37.308 77.0625V77.0769C37.308 77.3985 37.5175 77.504 38.3654 77.7216C39.3588 77.9808 39.9187 78.3375 39.9187 79.1917V79.2061C39.9187 80.1771 39.1764 80.7226 38.1206 80.7226Z" fill="white"/>
<path d="M44.0474 76.7483V80.6531H42.9692V76.7483H41.4783V75.7549H45.5367V76.7483H44.0474Z" fill="white"/>
<path d="M49.4976 77.0137L48.8465 78.6022H50.1487L49.4976 77.0137ZM50.9901 80.653L50.5454 79.562H48.4898L48.0451 80.653H46.9557L49.0385 75.7563H50.0255L52.1083 80.653H50.9901Z" fill="white"/>
<path d="M56.0547 76.7483V80.6531H54.9765V76.7483H53.4872V75.7549H57.5456V76.7483H56.0547Z" fill="white"/>
<path d="M59.3437 80.6531V75.7549H63.0373V76.7131H60.4139V77.7065H62.7238V78.6663H60.4139V79.6949H63.0725V80.6531H59.3437Z" fill="white"/>
<path d="M4.14792 64.4026V44.3345H19.281V48.2601H8.53107V52.3329H17.99V56.2602H8.53107V60.4754H19.425V64.4026H4.14792Z" fill="white"/>
<path d="M35.2459 51.2424C35.2459 52.9317 34.0141 54.0787 31.8625 54.0787H27.393V48.3182H31.7778C33.9277 48.3182 35.2459 49.2924 35.2459 51.1864V51.2424ZM38.8212 62.2083L37.1143 59.7128L35.4187 57.2349C37.9702 56.2863 39.717 54.253 39.717 51.0137V50.9561C39.717 46.8289 36.8808 44.335 32.1489 44.335H22.9779V62.621C22.9779 63.9712 24.072 64.4047 25.4222 64.4047H27.393V63.4017V60.5158V57.9771H30.8595L34.4204 63.2945L34.4812 63.3857C34.9148 63.9984 35.6282 64.4015 36.4361 64.4015H40.3217L38.8212 62.2083Z" fill="white"/>
<path d="M49.8079 55.985L52.4554 49.5207L55.1029 55.985H49.8079ZM54.5318 44.3345H50.491L43.9802 59.6339L42.5517 62.9885L41.9502 64.4026H44.7705C45.7847 64.4026 46.6549 63.7867 47.0277 62.9085L47.0309 62.9005L48.2418 59.9315H56.6674L58.4878 64.4026H63.071L54.5318 44.3345Z" fill="white"/>
<path d="M63.0741 68.0728H4.14792V72.0864H63.0741V68.0728Z" fill="white"/>
<path d="M0.606201 42.459L33.611 27.5531V0L0.606201 23.725V42.459Z" fill="white"/>
<path d="M66 42.459L32.9951 27.5531V0L66 23.725V42.459Z" fill="#A6A8AB"/>
<path d="M58.4398 45.8469L58.7262 45.8213C58.7406 45.9365 58.771 46.0293 58.8206 46.1044C58.8702 46.178 58.947 46.2372 59.0509 46.282C59.1549 46.3284 59.2733 46.3508 59.4029 46.3508C59.5196 46.3508 59.622 46.3332 59.71 46.2996C59.7996 46.2644 59.8652 46.218 59.9084 46.1572C59.9516 46.0964 59.974 46.0309 59.974 45.9605C59.974 45.8885 59.9532 45.8245 59.9116 45.7717C59.87 45.7189 59.8012 45.6725 59.7052 45.6357C59.6428 45.6117 59.5068 45.5749 59.2957 45.5238C59.0845 45.4742 58.9374 45.4246 58.8526 45.3798C58.7438 45.3222 58.6606 45.2502 58.6078 45.1654C58.5534 45.0806 58.5278 44.9847 58.5278 44.8791C58.5278 44.7623 58.5614 44.6551 58.627 44.5543C58.6942 44.4536 58.7886 44.3768 58.915 44.324C59.0413 44.2712 59.1821 44.2456 59.3373 44.2456C59.5068 44.2456 59.6572 44.2728 59.7884 44.3272C59.918 44.3816 60.0171 44.4632 60.0875 44.5687C60.1579 44.6759 60.1947 44.7959 60.1995 44.9303L59.9084 44.9527C59.8924 44.8071 59.8396 44.6967 59.7484 44.6231C59.6572 44.5495 59.5244 44.5128 59.3485 44.5128C59.1645 44.5128 59.0301 44.5464 58.947 44.6135C58.8638 44.6807 58.8206 44.7623 58.8206 44.8567C58.8206 44.9383 58.851 45.0071 58.9102 45.0598C58.9693 45.1126 59.1213 45.1686 59.3693 45.223C59.6156 45.279 59.7852 45.3286 59.878 45.3702C60.0107 45.431 60.1099 45.5094 60.1739 45.6037C60.2379 45.6981 60.2699 45.8069 60.2699 45.9301C60.2699 46.0517 60.2347 46.1668 60.1659 46.274C60.0955 46.3828 59.9947 46.466 59.8636 46.5268C59.7324 46.5876 59.5852 46.6163 59.4221 46.6163C59.2141 46.6163 59.0397 46.586 58.899 46.5252C58.7582 46.4644 58.6478 46.3732 58.5678 46.2516C58.4862 46.138 58.4446 46.0005 58.4398 45.8469Z" fill="white"/>
<path d="M60.6746 46.5857V44.2886H61.1321L61.676 45.9155C61.7256 46.0674 61.7624 46.181 61.7864 46.2562C61.812 46.173 61.8536 46.0498 61.908 45.8883L62.4582 44.2886H62.8662V46.5857H62.5734V44.6629L61.9064 46.5841H61.6312L60.9673 44.6293V46.5841H60.6746V46.5857Z" fill="white"/>
</svg>
