<svg width="71" height="201" viewBox="0 0 71 201" fill="none" xmlns="http://www.w3.org/2000/svg">
<g clip-path="url(#clip0_211_278)">
<rect opacity="0.5" y="-0.353553" width="48.5" height="48.5" transform="matrix(0.707107 -0.707107 -0.707107 -0.707107 35.25 70.0449)" stroke="white" stroke-width="0.5"/>
<path d="M27 39.5L36 30.5L45 39.5" stroke="white"/>
<path d="M35.5 30.5L35.5 122.5" stroke="white"/>
<rect y="-0.707107" width="48" height="48" rx="24" transform="matrix(0.707107 -0.707107 -0.707107 -0.707107 35 69.4413)" stroke="white"/>
<path d="M31.228 199.838V196.142C31.228 195.405 31.438 194.84 31.858 194.448C32.2687 194.047 32.8987 193.846 33.748 193.846C34.14 193.846 34.4667 193.893 34.728 193.986C34.98 194.079 35.1853 194.201 35.344 194.35C35.4933 194.49 35.6053 194.649 35.68 194.826C35.7547 195.003 35.7967 195.176 35.806 195.344H35.946C35.946 195.176 35.9833 194.989 36.058 194.784C36.1233 194.569 36.2447 194.373 36.422 194.196C36.59 194.009 36.8187 193.855 37.108 193.734C37.388 193.603 37.7427 193.538 38.172 193.538C39.068 193.538 39.7633 193.743 40.258 194.154C40.7527 194.565 41 195.101 41 195.764V199.838H31.228ZM40.02 198.718V196.1C40.02 195.652 39.9033 195.316 39.67 195.092C39.4273 194.859 39.054 194.742 38.55 194.742H37.906C37.402 194.742 37.0333 194.859 36.8 195.092C36.5573 195.316 36.436 195.652 36.436 196.1V198.718H40.02ZM35.456 198.718V196.282C35.456 195.881 35.3533 195.573 35.148 195.358C34.9333 195.143 34.602 195.036 34.154 195.036H33.51C33.062 195.036 32.7353 195.143 32.53 195.358C32.3153 195.573 32.208 195.881 32.208 196.282V198.718H35.456ZM41 187.128C41 187.819 40.6547 188.164 39.964 188.164H39.824V188.304C40.2627 188.425 40.5987 188.649 40.832 188.976C41.056 189.293 41.168 189.676 41.168 190.124C41.168 190.824 40.9907 191.347 40.636 191.692C40.2813 192.037 39.7587 192.21 39.068 192.21C38.396 192.21 37.864 191.991 37.472 191.552C37.08 191.104 36.884 190.409 36.884 189.466V188.164H36.086C35.554 188.164 35.162 188.285 34.91 188.528C34.658 188.761 34.532 189.135 34.532 189.648C34.532 190.068 34.6253 190.409 34.812 190.67C34.9893 190.922 35.2507 191.141 35.596 191.328L35.008 191.958C34.616 191.771 34.2893 191.473 34.028 191.062C33.7573 190.651 33.622 190.166 33.622 189.606C33.622 188.785 33.8227 188.164 34.224 187.744C34.616 187.315 35.1993 187.1 35.974 187.1H40.062L40.062 186.372H41V187.128ZM40.244 189.858C40.244 189.615 40.202 189.391 40.118 189.186C40.034 188.971 39.9267 188.789 39.796 188.64C39.656 188.491 39.502 188.374 39.334 188.29C39.1567 188.206 38.9747 188.164 38.788 188.164H37.696V189.494C37.696 190.054 37.7893 190.465 37.976 190.726C38.1627 190.978 38.4333 191.104 38.788 191.104H39.18C39.544 191.104 39.8147 190.992 39.992 190.768C40.16 190.544 40.244 190.241 40.244 189.858ZM41.168 182.544C41.168 183.44 40.874 184.145 40.286 184.658C39.698 185.162 38.732 185.414 37.388 185.414C36.044 185.414 35.078 185.162 34.49 184.658C33.902 184.145 33.608 183.44 33.608 182.544C33.608 181.863 33.7667 181.322 34.084 180.92C34.392 180.51 34.7887 180.211 35.274 180.024L35.722 180.906C35.3487 181.028 35.064 181.219 34.868 181.48C34.6627 181.742 34.56 182.096 34.56 182.544C34.56 183.132 34.7327 183.566 35.078 183.846C35.4233 184.126 35.9507 184.266 36.66 184.266H38.116C38.8253 184.266 39.3527 184.126 39.698 183.846C40.0433 183.566 40.216 183.132 40.216 182.544C40.216 182.078 40.1133 181.704 39.908 181.424C39.7027 181.135 39.39 180.906 38.97 180.738L39.516 179.954C40.02 180.169 40.4213 180.496 40.72 180.934C41.0187 181.364 41.168 181.9 41.168 182.544ZM30.64 178.567V177.503H35.96L37.374 177.587V177.475L36.016 176.467L33.776 174.661V173.373L36.646 175.767L41 173.163V174.437L37.276 176.551L38.396 177.503H41V178.567H30.64ZM41 167.472C41 167.855 40.916 168.135 40.748 168.312C40.5707 168.48 40.2907 168.564 39.908 168.564H34.714L34.714 169.628H33.776L33.776 168.998C33.776 168.784 33.7247 168.644 33.622 168.578C33.51 168.504 33.3467 168.466 33.132 168.466H31.788V167.5H33.776V166.1H34.714V167.5H40.062V166.17H41V167.472ZM41.168 162.062C41.168 162.482 41.098 162.874 40.958 163.238C40.818 163.602 40.594 163.915 40.286 164.176C39.978 164.437 39.586 164.643 39.11 164.792C38.634 164.941 38.06 165.016 37.388 165.016C36.716 165.016 36.142 164.941 35.666 164.792C35.19 164.643 34.798 164.437 34.49 164.176C34.182 163.915 33.958 163.602 33.818 163.238C33.678 162.874 33.608 162.482 33.608 162.062C33.608 161.642 33.678 161.25 33.818 160.886C33.958 160.522 34.182 160.209 34.49 159.948C34.798 159.687 35.19 159.481 35.666 159.332C36.142 159.183 36.716 159.108 37.388 159.108C38.06 159.108 38.634 159.183 39.11 159.332C39.586 159.481 39.978 159.687 40.286 159.948C40.594 160.209 40.818 160.522 40.958 160.886C41.098 161.25 41.168 161.642 41.168 162.062ZM40.216 162.062C40.216 161.483 40.0433 161.04 39.698 160.732C39.3527 160.415 38.8253 160.256 38.116 160.256H36.66C35.9507 160.256 35.4233 160.415 35.078 160.732C34.7327 161.04 34.56 161.483 34.56 162.062C34.56 162.641 34.7327 163.089 35.078 163.406C35.4233 163.714 35.9507 163.868 36.66 163.868H38.116C38.8253 163.868 39.3527 163.714 39.698 163.406C40.0433 163.089 40.216 162.641 40.216 162.062ZM41 153.048C41 153.431 40.916 153.711 40.748 153.888C40.5707 154.056 40.2907 154.14 39.908 154.14H34.714V155.204H33.776V154.574C33.776 154.36 33.7247 154.22 33.622 154.154C33.51 154.08 33.3467 154.042 33.132 154.042H31.788V153.076H33.776V151.676H34.714V153.076H40.062V151.746H41V153.048ZM41.168 147.638C41.168 148.058 41.098 148.45 40.958 148.814C40.818 149.178 40.594 149.491 40.286 149.752C39.978 150.013 39.586 150.219 39.11 150.368C38.634 150.517 38.06 150.592 37.388 150.592C36.716 150.592 36.142 150.517 35.666 150.368C35.19 150.219 34.798 150.013 34.49 149.752C34.182 149.491 33.958 149.178 33.818 148.814C33.678 148.45 33.608 148.058 33.608 147.638C33.608 147.218 33.678 146.826 33.818 146.462C33.958 146.098 34.182 145.785 34.49 145.524C34.798 145.263 35.19 145.057 35.666 144.908C36.142 144.759 36.716 144.684 37.388 144.684C38.06 144.684 38.634 144.759 39.11 144.908C39.586 145.057 39.978 145.263 40.286 145.524C40.594 145.785 40.818 146.098 40.958 146.462C41.098 146.826 41.168 147.218 41.168 147.638ZM40.216 147.638C40.216 147.059 40.0433 146.616 39.698 146.308C39.3527 145.991 38.8253 145.832 38.116 145.832H36.66C35.9507 145.832 35.4233 145.991 35.078 146.308C34.7327 146.616 34.56 147.059 34.56 147.638C34.56 148.217 34.7327 148.665 35.078 148.982C35.4233 149.29 35.9507 149.444 36.66 149.444H38.116C38.8253 149.444 39.3527 149.29 39.698 148.982C40.0433 148.665 40.216 148.217 40.216 147.638ZM33.776 143.047V141.983H34.952V141.843C34.476 141.703 34.1353 141.479 33.93 141.171C33.7153 140.854 33.608 140.471 33.608 140.023C33.608 139.594 33.6967 139.216 33.874 138.889C34.0513 138.563 34.3033 138.287 34.63 138.063C34.9567 137.839 35.3533 137.671 35.82 137.559C36.2867 137.447 36.8093 137.391 37.388 137.391C37.9667 137.391 38.4893 137.447 38.956 137.559C39.4227 137.671 39.8193 137.839 40.146 138.063C40.4727 138.287 40.7247 138.563 40.902 138.889C41.0793 139.216 41.168 139.594 41.168 140.023C41.168 140.471 41.0653 140.854 40.86 141.171C40.6453 141.479 40.3 141.703 39.824 141.843V141.983H43.8V143.047H33.776ZM40.216 140.345C40.216 139.757 40.034 139.309 39.67 139.001C39.2967 138.693 38.7787 138.539 38.116 138.539H36.66C35.9973 138.539 35.484 138.693 35.12 139.001C34.7467 139.309 34.56 139.757 34.56 140.345C34.56 140.569 34.5927 140.784 34.658 140.989C34.7233 141.185 34.8167 141.358 34.938 141.507C35.0593 141.647 35.204 141.764 35.372 141.857C35.54 141.941 35.7267 141.983 35.932 141.983H38.844C39.0493 141.983 39.236 141.941 39.404 141.857C39.572 141.764 39.7167 141.647 39.838 141.507C39.9593 141.358 40.0527 141.185 40.118 140.989C40.1833 140.784 40.216 140.569 40.216 140.345Z" fill="white"/>
</g>
<defs>
<clipPath id="clip0_211_278">
<rect width="71" height="201" fill="white" transform="matrix(-1 0 0 -1 71 201)"/>
</clipPath>
</defs>
</svg>
