<svg width="168" height="37" viewBox="0 0 168 37" fill="none" xmlns="http://www.w3.org/2000/svg">
<path d="M4.28 20.4502V36.4902H0V20.4502H4.28Z" fill="#E4B587"/>
<path d="M11.72 23.9502V27.0902H18.26V30.6002H11.72V36.4802H7.44V20.4502H18.82V23.9602H11.72V23.9502Z" fill="#E4B587"/>
<path d="M25.69 23.9502V27.0902H32.23V30.6002H25.69V36.4802H21.41V20.4502H32.79V23.9602H25.69V23.9502Z" fill="#E4B587"/>
<path d="M58.75 20.4502V36.4902H54.47V30.2002H48.89V36.4902H44.61V20.4502H48.89V26.4802H54.47V20.4502H58.75Z" fill="#E4B587"/>
<path d="M69 36.6098C66.56 36.6098 64.78 36.2498 63.65 35.5198C62.27 34.6198 61.58 33.0298 61.58 30.7298V26.1998C61.58 23.8998 62.27 22.3098 63.65 21.4098C64.78 20.6798 66.56 20.3198 69 20.3198C71.44 20.3198 73.22 20.6798 74.35 21.4098C75.73 22.3098 76.42 23.8998 76.42 26.1998V30.7298C76.42 33.0298 75.73 34.6198 74.35 35.5198C73.22 36.2498 71.43 36.6098 69 36.6098ZM69 32.8898C70.2 32.8898 70.98 32.7498 71.35 32.4598C71.79 32.1298 72.01 31.3998 72.01 30.2598V26.6498C72.01 25.5198 71.79 24.7898 71.35 24.4498C70.98 24.1798 70.2 24.0398 69 24.0398C67.8 24.0398 67.03 24.1798 66.67 24.4498C66.21 24.7898 65.99 25.5298 65.99 26.6498V30.2598C65.99 31.3998 66.22 32.1398 66.67 32.4798C67.02 32.7598 67.8 32.8898 69 32.8898Z" fill="#E4B587"/>
<path d="M83.48 20.4502V32.7702H90.17V36.4902H79.2V20.4502H83.48Z" fill="#E4B587"/>
<path d="M92.59 36.4802V20.4502H100.72C102.99 20.4502 104.63 20.9202 105.65 21.8702C106.67 22.8202 107.18 24.4202 107.18 26.6702V30.0302C107.18 32.3002 106.76 33.9202 105.92 34.9102C105.02 35.9702 103.48 36.4902 101.3 36.4902H92.59V36.4802ZM96.87 24.1702V32.7702H100.61C102.05 32.7702 102.77 31.8602 102.77 30.0302V26.6702C102.77 25.6702 102.6 25.0002 102.26 24.6402C101.95 24.3302 101.4 24.1702 100.61 24.1702H96.87Z" fill="#E4B587"/>
<path d="M114.36 20.4502V36.4902H110.08V20.4502H114.36Z" fill="#E4B587"/>
<path d="M121.61 24.1702L121.87 36.4902H117.59V20.4502H124.82L129.42 32.7702H129.59L129.33 20.4502H133.61V36.4902H126.32L121.79 24.1702H121.61Z" fill="#E4B587"/>
<path d="M151.13 25.4301H146.79C146.75 24.7201 146.44 24.2501 145.87 24.0201C145.53 23.8901 144.91 23.8301 144.03 23.8301C142.59 23.8301 141.67 24.0901 141.27 24.6201C140.97 25.0201 140.82 25.9301 140.82 27.3601V29.9701C140.82 31.3101 141.08 32.1901 141.59 32.6001C142 32.9401 142.81 33.1101 144.03 33.1101C145.13 33.1101 145.86 32.9301 146.23 32.5801C146.6 32.2201 146.79 31.5001 146.79 30.4001H143.84V27.4301H151.13V30.2301C151.13 32.9001 150.67 34.6301 149.76 35.4301C148.85 36.2301 146.94 36.6301 144.03 36.6301C141.29 36.6301 139.4 36.2701 138.34 35.5601C137.06 34.6901 136.42 33.0301 136.42 30.5801V26.4301C136.42 23.9601 137.1 22.2801 138.47 21.3801C139.54 20.6801 141.39 20.3301 144.03 20.3301C146.6 20.3301 148.3 20.5401 149.14 20.9701C150.47 21.6401 151.13 23.1301 151.13 25.4301Z" fill="#E4B587"/>
<path d="M159.67 26.6001L161.45 26.7301C163.89 26.9001 165.47 27.2601 166.2 27.8001C166.98 28.3701 167.38 29.5501 167.38 31.3501C167.38 32.5501 167.3 33.4001 167.14 33.8901C166.87 34.7601 166.28 35.4101 165.37 35.8401C164.27 36.3501 162.63 36.6101 160.44 36.6101C157.98 36.6101 156.33 36.3701 155.51 35.9001C154.27 35.1901 153.65 33.6401 153.65 31.2601H157.76C157.76 32.0601 157.94 32.5701 158.31 32.8001C158.64 33.0001 159.35 33.1001 160.44 33.1001C161.5 33.1001 162.2 33.0201 162.53 32.8601C162.91 32.6701 163.11 32.2601 163.11 31.6201C163.11 30.9501 163 30.5501 162.78 30.4201C162.56 30.2901 161.92 30.1901 160.87 30.1201L159.93 30.0601C158.22 29.9501 157.09 29.8301 156.55 29.7001C155.55 29.4901 154.84 29.0701 154.41 28.4601C153.91 27.7501 153.66 26.6601 153.66 25.2101C153.66 23.1001 154.27 21.7101 155.48 21.0401C156.35 20.5601 158 20.3101 160.44 20.3101C162.66 20.3101 164.19 20.5001 165.02 20.8901C166.3 21.5201 166.94 22.8201 166.94 24.8001V25.4601H162.83C162.83 24.7001 162.64 24.2301 162.27 24.0301C162.01 23.8901 161.4 23.8201 160.43 23.8201C159.36 23.8201 158.66 23.9301 158.31 24.1601C158.05 24.3501 157.93 24.6901 157.93 25.1901C157.93 25.7701 158.08 26.1601 158.38 26.3401C158.56 26.4801 159 26.5601 159.67 26.6001Z" fill="#E4B587"/>
<path d="M11.06 10.74C10.07 10.74 9.18001 10.34 8.53001 9.69C7.88001 9.04 7.48001 8.15 7.48001 7.16H4.22001V10.74H0.320007V6.75H3.90001V3.58C2.91001 3.58 2.02001 3.18 1.37001 2.53C0.720007 1.88 0.320007 0.99 0.320007 0H11.06V10.74Z" fill="#E4B587"/>
</svg>
